Coordinates
version=1
nRows=14
nColumns=24
inDegrees=yes

Units are S.I. units (second, meters, Newtons, ...)
Angles are in degrees.

endheader
time	pelvis_tilt	pelvis_list	pelvis_rotation	pelvis_tx	pelvis_ty	pelvis_tz	hip_flexion_r	hip_adduction_r	hip_rotation_r	knee_angle_r	ankle_angle_r	subtalar_angle_r	mtp_angle_r	hip_flexion_l	hip_adduction_l	hip_rotation_l	knee_angle_l	ankle_angle_l	subtalar_angle_l	mtp_angle_l	lumbar_extension	lumbar_bending	lumbar_rotation
      0.47100000	     -3.40976897	      2.15740597	     -0.05620717	     -0.79955938	      1.05157164	      0.31000203	     26.51325832	      1.29789717	     -8.20122658	     -4.89988021	      8.95223564	     -1.35899161	     -0.07788365	     -7.27897571	      5.96065949	     -5.44296902	    -12.02286384	     15.27547854	      8.97811282	      0.23004967	      7.53119804	     -0.80206483	     -2.64691435
      0.47516667	     -3.72704584	      2.21563459	     -0.01058430	     -0.79354309	      1.05064179	      0.31013335	     26.73805887	      1.31755204	     -7.64516566	     -5.02151056	      8.83456828	     -2.07617306	     -0.20752299	     -7.07370571	      5.97421646	     -5.30182109	    -12.46362353	     15.14315407	      8.61793278	      0.00380612	      8.14669077	     -0.92976691	     -3.26740949
      0.47933333	     -3.73289606	      2.21348340	      0.05357612	     -0.78756941	      1.05022035	      0.31013795	     26.66722166	      1.36128202	     -7.55291161	     -5.26548536	      8.81293709	     -2.04712314	     -0.21564057	     -7.17043308	      5.91530461	     -5.31216777	    -12.96979319	     15.08946126	      8.64536595	     -0.01130109	      8.19426929	     -0.92328546	     -3.27710456
      0.48350000	     -3.64391128	      2.16666724	      0.01009610	     -0.78141809	      1.04992859	      0.31057392	     26.46271606	      1.53159646	     -7.17627345	     -5.50904759	      8.85291198	     -2.19377764	     -0.36254539	     -7.35150299	      5.76671766	     -5.71132099	    -13.52114885	     15.08547033	      9.41446569	     -0.24194723	      8.16333960	     -0.93227463	     -3.45447306
      0.48766667	     -3.63296223	      2.16374072	      0.06235749	     -0.77536736	      1.04956531	      0.31065437	     26.36266548	      1.58475547	     -6.92692318	     -5.82591757	      8.79348453	     -2.18337092	     -0.39464159	     -7.42087650	      5.68436123	     -5.75963236	    -14.11079067	     14.90479379	      9.54495993	     -0.29296762	      8.15904978	     -0.94274495	     -3.46089167
      0.49183333	     -3.58512569	      2.17131981	      0.09320450	     -0.76929746	      1.04926625	      0.31064122	     26.24332073	      1.61768416	     -6.77916167	     -6.21749944	      8.74875783	     -2.17432921	     -0.40139447	     -7.51575528	      5.62492597	     -5.75976886	    -14.73695467	     14.81976361	      9.59220309	     -0.30322763	      8.24624703	     -0.89586258	     -3.46363948
      0.49600000	     -3.55367141	      2.15197004	      0.05770388	     -0.76314331	      1.04893998	      0.31108829	     26.10590357	      1.75172107	     -6.28921998	     -6.56120498	      8.60439298	     -2.26501416	     -0.44114558	     -7.54239490	      5.48079934	     -6.12602507	    -15.44704926	     14.43521353	     10.13288490	     -0.35230116	      8.13148573	     -0.93471427	     -3.49912093
      0.50016667	     -3.36244726	      2.13146986	     -0.08875788	     -0.75699449	      1.04881366	      0.31169574	     25.80812725	      1.93328707	     -5.70738446	     -6.93958147	      8.34252972	     -2.88611087	     -0.52954612	     -7.73664240	      5.34018909	     -6.55275907	    -16.17253512	     14.30669607	     11.03134955	     -0.42294755	      8.14439068	     -0.89612890	     -3.50554732
      0.50433333	     -3.30760143	      2.11526664	     -0.01425644	     -0.75084095	      1.04861531	      0.31168397	     25.65261655	      1.97130486	     -5.53915585	     -7.34867459	      8.26586052	     -2.87414201	     -0.53484445	     -7.73454219	      5.21433211	     -6.55182592	    -17.01123275	     14.21744489	     11.04860299	     -0.42707304	      8.19759204	     -0.83399496	     -3.50123243
      0.50850000	     -3.24322358	      2.12101647	     -0.09021784	     -0.74477797	      1.04835688	      0.31224744	     25.50034011	      2.09282401	     -5.04777074	     -7.75006157	      7.79494719	     -3.25460023	     -0.58572710	     -7.68749914	      5.06921054	     -6.92139971	    -17.91697729	     13.70231589	     11.78282865	     -0.44398404	      8.07193328	     -0.87475110	     -3.50431123
      0.51266667	     -3.15211118	      2.09372519	     -0.02771386	     -0.73860631	      1.04825165	      0.31227424	     25.29569300	      2.14137437	     -4.86817107	     -8.16096721	      7.70568526	     -3.26329846	     -0.59037107	     -7.65173733	      4.90919781	     -6.94742265	    -18.88569137	     13.59663904	     11.82647441	     -0.44343066	      8.15167160	     -0.80057593	     -3.50026114
      0.51683333	     -3.04489994	      1.98474768	     -0.13720310	     -0.73227395	      1.04812222	      0.31342218	     24.99469025	      2.45900969	     -3.98330821	     -8.39272940	      6.97601392	     -4.63138126	     -0.69682298	     -7.58710100	      4.54634950	     -7.57532751	    -19.95965519	     13.26272683	     13.13442695	     -0.38089245	      8.05162160	     -0.73454236	     -3.47595194
      0.52100000	     -2.93238750	      1.97383964	     -0.10852358	     -0.72622199	      1.04805415	      0.31347661	     24.78947723	      2.49338959	     -3.84123234	     -8.83914739	      6.84909974	     -4.59335357	     -0.70057829	     -7.48568674	      4.39466094	     -7.59930394	    -21.07361515	     13.07093313	     13.17405002	     -0.37703579	      8.09749271	     -0.66637342	     -3.47143244
      0.52516667	     -2.89744620	      1.94855259	     -0.15425958	     -0.72015118	      1.04785336	      0.31398933	     24.66696933	      2.61224770	     -3.56115962	     -9.25294057	      6.18037779	     -4.86275745	     -0.73275856	     -7.24938645	      4.17520433	     -7.85520867	    -22.23447867	     12.15029049	     13.88555098	     -0.33714125	      7.95504368	     -0.67447123	     -3.47033963
